# xmcd
#
# Track frame offsets: 
#        150
#        21166
#        47006
#        61606
#        81381
#        95586
#        110606
#        126431
#        140831
#        155356
#        172105
#        187731
#        202206
#        215931
#        235255
#        257931
#
# Disc length: 3680 seconds
#
# Revision: 2
# Processed by: cddbd v1.5.2PL0 Copyright (c) Steve Scherf et al.
# Submitted via: ExactAudioCopyFreeDBPlugin 1.0
#
DISCID=f40e5e10
DTITLE=Kobra - Deutschland ist krank
DYEAR=2006
DGENRE=Rap
TTITLE0=Nationalhymne
TTITLE1=Deutschland ist krank
TTITLE2=Kobra ist hier feat. Lemonia
TTITLE3=Mein Weg
TTITLE4=Wise Guys feat. Sentino
TTITLE5=Wer von euch hat sowas erwartet
TTITLE6=Wie ein Feuer feat. Bahar
TTITLE7=Dies is Rap feat. Ercandize
TTITLE8=Deutschland brennt
TTITLE9=Lichter
TTITLE10=Holla feat. Manuellsen
TTITLE11=Ich frag mich nicht
TTITLE12=Aerobic feat. Taichi
TTITLE13=Es ist so anders feat. Lemonia
TTITLE14=Alarm Alarm
TTITLE15=Deutschland, Deutschland
EXTD=
EXTT0=
EXTT1=
EXTT2=
EXTT3=
EXTT4=
EXTT5=
EXTT6=
EXTT7=
EXTT8=
EXTT9=
EXTT10=
EXTT11=
EXTT12=
EXTT13=
EXTT14=
EXTT15=
PLAYORDER=
